<svg width="15" height="26" viewBox="0 0 15 26" fill="none" xmlns="http://www.w3.org/2000/svg">
<path d="M3.06676 21.2188C2.46354 21.2188 1.9465 21.0066 1.51562 20.5824C1.08475 20.1581 0.872633 19.6411 0.879261 19.0312C0.872633 18.4347 1.08475 17.9242 1.51562 17.5C1.9465 17.0758 2.46354 16.8636 3.06676 16.8636C3.65009 16.8636 4.1572 17.0758 4.58807 17.5C5.02557 17.9242 5.24763 18.4347 5.25426 19.0312C5.24763 19.4356 5.14157 19.8035 4.93608 20.1349C4.73722 20.4664 4.47206 20.7315 4.14062 20.9304C3.81581 21.1226 3.45786 21.2188 3.06676 21.2188ZM3.06676 10.321C2.46354 10.321 1.9465 10.1089 1.51562 9.68466C1.08475 9.25379 0.872633 8.73674 0.879261 8.13352C0.872633 7.53693 1.08475 7.02651 1.51562 6.60227C1.9465 6.1714 2.46354 5.95597 3.06676 5.95597C3.65009 5.95597 4.1572 6.1714 4.58807 6.60227C5.02557 7.02651 5.24763 7.53693 5.25426 8.13352C5.24763 8.53125 5.14157 8.89583 4.93608 9.22727C4.73722 9.55871 4.47206 9.82386 4.14062 10.0227C3.81581 10.2216 3.45786 10.321 3.06676 10.321ZM14.8338 12.6974C14.8338 15.1766 14.5024 17.4602 13.8395 19.5483C13.1833 21.6297 12.2022 23.5554 10.8963 25.3253H7.5057C8.01611 24.669 8.48676 23.867 8.91763 22.919C9.35513 21.9711 9.73297 20.9304 10.0512 19.7969C10.376 18.6634 10.6279 17.4901 10.8068 16.277C10.9924 15.0639 11.0852 13.8707 11.0852 12.6974C11.0852 11.1264 10.9262 9.53551 10.608 7.92472C10.2964 6.31392 9.86886 4.81913 9.3253 3.44034C8.78837 2.06155 8.18183 0.934659 7.5057 0.0596592H10.8963C12.2022 1.82955 13.1833 3.75852 13.8395 5.84659C14.5024 7.92803 14.8338 10.2116 14.8338 12.6974Z" fill="#17193D"/>
</svg>
